<?xml version="1.0" encoding="UTF-8"?>
<svg id="Layer_2" data-name="Layer 2" xmlns="http://www.w3.org/2000/svg" viewBox="0 0 938.65 160">
  <defs>
    <style>
      .cls-1 {
        fill: #fff;
        stroke-width: 0px;
      }
    </style>
  </defs>
  <g id="Logo_Kokoc_Group" data-name="Logo Kokoc Group">
    <g>
      <g id="Sign">
        <polygon class="cls-1" points="67.49 68.2 67.41 68.28 67.48 68.22 67.49 68.2"/>
        <circle class="cls-1" cx="80" cy="116.46" r="12.15"/>
        <circle class="cls-1" cx="116.46" cy="80" r="12.15"/>
        <circle class="cls-1" cx="152.91" cy="80" r="7.09"/>
        <circle class="cls-1" cx="7.09" cy="80" r="7.09"/>
        <circle class="cls-1" cx="80" cy="152.91" r="7.09"/>
        <circle class="cls-1" cx="80" cy="7.09" r="7.09"/>
        <circle class="cls-1" cx="80" cy="43.54" r="12.15"/>
        <path class="cls-1" d="m133.49,41.04c-1.05-7.44-6.99-13.42-14.44-14.52-.87-.13-1.74-.19-2.6-.19-12.68,0-17.4,11.33-17.22,16.74.02.65,0,1.27-.04,1.87-.66,9.49-8.32,17.14-17.81,17.8-.46.03-1.36.05-3.89.23-6.57.48-11.66,6.91-12.27,8.2-.6,1.28-2.05,1.94-3.46,1.94h-.01c-1.42,0-2.73-.75-3.46-1.96-1.45-2.41-3.49-4.45-5.91-5.9-1.22-.73-1.96-2.05-1.96-3.47s.74-2.74,1.96-3.47c5.16-3.11,8.36-8.76,8.36-14.76,0-9.49-7.72-17.22-17.22-17.22s-17.22,7.72-17.22,17.22c0,5.99,3.2,11.65,8.36,14.76,1.22.73,1.96,2.05,1.96,3.47s-.74,2.74-1.96,3.47c-5.16,3.11-8.36,8.76-8.36,14.76h0c0,6,3.2,11.65,8.36,14.76,1.22.73,1.96,2.05,1.96,3.47s-.74,2.74-1.96,3.47c-5.16,3.11-8.36,8.76-8.36,14.76,0,9.49,7.72,17.22,17.22,17.22s17.22-7.72,17.22-17.22c0-5.99-3.2-11.65-8.36-14.76-1.22-.73-1.96-2.05-1.96-3.47s.74-2.74,1.96-3.47c2.41-1.45,4.45-3.5,5.91-5.9.73-1.21,2.04-1.96,3.46-1.96h.01c1.41,0,2.85.66,3.46,1.94.61,1.29,5.69,7.72,12.27,8.2,2.52.18,3.42.2,3.89.23,9.49.66,17.14,8.32,17.81,17.8.05.59.06,1.22.04,1.87-.25,7.34,5.46,12.06,5.46,12.06l.21.2c5.97,5.45,13.12,4.44,14.15,4.29,7.45-1.11,13.38-7.08,14.44-14.52,1.31-9.22-5.46-15.23-5.46-15.23-5.04-5.04-10.54-4.48-11.95-4.48-9.86-.19-18.85-8.1-18.85-19.24,0-11.14,8.99-19.05,18.85-19.24,1.41,0,6.91.56,11.95-4.48l.96-.96c3.61-3.82,5.25-9.02,4.49-14.27Z"/>
      </g>
      <g id="Kokoc">
        <polygon class="cls-1" points="256.45 40.24 234.01 40.24 203.74 72.89 203.74 40.24 186.6 40.24 186.6 120 203.74 120 203.74 87.35 234.01 120 256.45 120 219.3 80.12 256.45 40.24"/>
        <path class="cls-1" d="m288.18,40.22c-22.04,0-39.91,17.75-39.91,39.83s17.87,39.93,39.91,39.93,39.91-17.85,39.91-39.93-17.77-39.83-39.91-39.83Zm0,64.07c-13,0-23.26-10.73-23.26-24.25s10.36-24.14,23.26-24.14,23.36,10.83,23.36,24.14-10.36,24.25-23.36,24.25Z"/>
        <polygon class="cls-1" points="407.12 40.24 384.68 40.24 354.41 72.89 354.41 40.24 337.27 40.24 337.27 120 354.41 120 354.41 87.35 384.68 120 407.12 120 369.97 80.12 407.12 40.24"/>
        <path class="cls-1" d="m438.85,40.22c-22.04,0-39.91,17.75-39.91,39.83s17.87,39.93,39.91,39.93,39.91-17.85,39.91-39.93-17.77-39.83-39.91-39.83Zm0,64.07c-13,0-23.26-10.73-23.26-24.25s10.36-24.14,23.26-24.14,23.36,10.83,23.36,24.14-10.36,24.25-23.36,24.25Z"/>
        <path class="cls-1" d="m529.06,55.77c9.47,0,18.64,4.74,25.53,12.78v-19.47c-6.79-5.77-16.06-9.07-25.84-9.07-22.96,0-41.19,17.62-41.19,39.88s18.23,39.88,41.19,39.88c9.78,0,19.05-3.3,25.84-9.07v-19.48c-6.79,8.04-16.06,12.88-25.53,12.88-14.11,0-24.61-10.41-24.61-24.22s10.6-24.11,24.61-24.11Z"/>
      </g>
      <g id="Group">
        <path class="cls-1" d="m761.73,40c-22.09,0-40,17.8-40,39.95s17.91,40.05,40,40.05,40-17.9,40-40.05-17.81-39.95-40-39.95Zm0,64.27c-13.03,0-23.31-10.76-23.31-24.32s10.38-24.22,23.31-24.22,23.41,10.87,23.41,24.22-10.38,24.32-23.41,24.32Z"/>
        <path class="cls-1" d="m581.35,80c0,22.74,18.67,40,43.54,40,10.52,0,21.04-3.2,27.85-8.37v-38.25h-33.32v14.88h16.81v13.23c-3.2,1.66-7.22,2.59-11.14,2.59-15.88,0-26.92-9.92-26.92-24.08s10.94-24.08,26.92-24.08c10.42,0,20.74,4.24,27.65,11.06v-18.19c-7.01-5.48-17.43-8.79-28.06-8.79-24.66,0-43.33,17.26-43.33,40Z"/>
        <path class="cls-1" d="m715.7,66.35c0-13.95-11.24-25.11-25.9-25.11h-27.96v77.52h16.71v-27.19h6.19l20.74,27.19h20.12l-23.21-30.28c8.05-4.34,13.31-12.61,13.31-22.12Zm-27.13,10.34h-10.01v-20.05h10.01c6.19,0,10.42,4.23,10.42,9.92s-4.33,10.13-10.42,10.13Z"/>
        <path class="cls-1" d="m858.69,87.85c0,9.51-6.71,16.33-15.88,16.33s-15.89-6.82-15.89-16.33v-46.62h-16.71v46.51c0,18.5,13.83,32.25,32.6,32.25s32.6-13.75,32.6-32.25v-46.51h-16.71v46.62Z"/>
        <path class="cls-1" d="m912.76,41.24h-27.96v77.52h16.71v-26.77h11.24c14.65,0,25.9-11.06,25.9-25.32s-11.14-25.43-25.9-25.43Zm-1.34,35.35h-9.9v-19.95h9.9c6.19,0,10.52,4.03,10.52,9.92s-4.33,10.03-10.52,10.03Z"/>
      </g>
    </g>
  </g>
</svg>